<svg id="Layer_1" data-name="Layer 1" xmlns="http://www.w3.org/2000/svg" viewBox="0 0 455.3 362.59"><defs><style>.cls-1,.cls-2,.cls-3,.cls-5{fill:none;}.cls-1{stroke:#231f20;}.cls-1,.cls-2,.cls-3,.cls-4,.cls-5{stroke-miterlimit:10;}.cls-1,.cls-2{stroke-width:2px;}.cls-2,.cls-3,.cls-4,.cls-5{stroke:#fff;}.cls-3,.cls-4{stroke-width:5px;}.cls-13,.cls-18,.cls-4,.cls-6,.cls-7{fill:#fff;}.cls-6{font-size:22.11px;}.cls-13,.cls-6,.cls-7{font-family:MyriadPro-Regular, Myriad Pro;}.cls-7{font-size:12px;}.cls-8{letter-spacing:0.02em;}.cls-9{letter-spacing:0em;}.cls-10{letter-spacing:0.01em;}.cls-11{letter-spacing:-0.01em;}.cls-12{letter-spacing:-0.01em;}.cls-13{font-size:14px;}.cls-14{letter-spacing:0em;}.cls-15{letter-spacing:0em;}.cls-16{letter-spacing:-0.01em;}.cls-17{letter-spacing:0em;}.cls-18{font-size:16.74px;font-family:Arial-BoldMT, Arial;font-weight:700;}</style></defs><g id="brain"><g id="Inner"><path class="cls-1" d="M65.49,190.5c50.85,0,9,56.49,9,56.49" transform="translate(-24.35 -70.7)"/><path class="cls-1" d="M111.82,190.5" transform="translate(-24.35 -70.7)"/><line class="cls-1" x1="83.52" y1="110.19" x2="112.33" y2="138.43"/><path class="cls-1" d="M94.31,151.51s17-21.47,28-12.43" transform="translate(-24.35 -70.7)"/><path class="cls-1" d="M144,144.19s23.16-43,44.63-43" transform="translate(-24.35 -70.7)"/><line class="cls-1" x1="167.13" y1="66.16" x2="200.47" y2="23.18"/><path class="cls-1" d="M166.34,213.09s14.41-52,22.32-44.06" transform="translate(-24.35 -70.7)"/><path class="cls-1" d="M240.07,151.51l-9,29.38s-15.82,16.7-22.88,9.76" transform="translate(-24.35 -70.7)"/><path class="cls-1" d="M249.49,101.23s8.66,2.26,8.66,7.91,13.63,6.23,13.63,6.23" transform="translate(-24.35 -70.7)"/><path class="cls-1" d="M342.33,115.37s24.29,23.71,24.29,36.14,14.13,20.42,14.13,20.42" transform="translate(-24.35 -70.7)"/><path class="cls-1" d="M318.6,126.65s-20.9,37.29-40.68,38.42" transform="translate(-24.35 -70.7)"/><polyline class="cls-1" points="271.65 189.85 294.53 167.69 317.98 144.96"/><path class="cls-1" d="M321.43,198.41s-14.15,33.07-2.55,40" transform="translate(-24.35 -70.7)"/><line class="cls-1" x1="183.8" y1="224.88" x2="206.68" y2="217.53"/><path class="cls-1" d="M203.35,260.55s42-11.86,71.56,15.26" transform="translate(-24.35 -70.7)"/><line class="cls-1" x1="373.35" y1="167.69" x2="315.72" y2="207.93"/><line class="cls-1" x1="356.4" y1="110.19" x2="334.37" y2="155.38"/><polyline class="cls-1" points="359.23 121.63 384.08 132.78 359.23 142.39"/><polyline class="cls-1" points="396.64 167.4 414.16 150.3 414.16 170.64"/><line class="cls-1" x1="391.69" y1="187.26" x2="401.29" y2="170.64"/><line class="cls-1" x1="398.7" y1="190.12" x2="407.89" y2="173.2"/><path class="cls-2" d="M65.49,190.5c50.85,0,9,56.49,9,56.49" transform="translate(-24.35 -70.7)"/><path class="cls-2" d="M111.82,190.5" transform="translate(-24.35 -70.7)"/><line class="cls-2" x1="83.52" y1="110.19" x2="112.33" y2="138.43"/><path class="cls-2" d="M94.31,151.51s17-21.47,28-12.43" transform="translate(-24.35 -70.7)"/><path class="cls-2" d="M144,144.19s23.16-43,44.63-43" transform="translate(-24.35 -70.7)"/><line class="cls-2" x1="167.13" y1="66.16" x2="200.47" y2="23.18"/><path class="cls-2" d="M166.34,213.09s14.41-52,22.32-44.06" transform="translate(-24.35 -70.7)"/><path class="cls-2" d="M240.07,151.51l-9,29.38s-15.82,16.7-22.88,9.76" transform="translate(-24.35 -70.7)"/><path class="cls-2" d="M249.49,101.23s8.66,2.26,8.66,7.91,13.63,6.23,13.63,6.23" transform="translate(-24.35 -70.7)"/><path class="cls-2" d="M342.33,115.37s24.29,23.71,24.29,36.14,14.13,20.42,14.13,20.42" transform="translate(-24.35 -70.7)"/><path class="cls-2" d="M318.6,126.65s-20.9,37.29-40.68,38.42" transform="translate(-24.35 -70.7)"/><polyline class="cls-2" points="271.65 189.85 294.53 167.69 317.98 144.96"/><path class="cls-2" d="M321.43,198.41s-14.15,33.07-2.55,40" transform="translate(-24.35 -70.7)"/><line class="cls-2" x1="183.8" y1="224.88" x2="206.68" y2="217.53"/><path class="cls-2" d="M203.35,260.55s42-11.86,71.56,15.26" transform="translate(-24.35 -70.7)"/><line class="cls-2" x1="373.35" y1="167.69" x2="315.72" y2="207.93"/><line class="cls-2" x1="356.4" y1="110.19" x2="334.37" y2="155.38"/><polyline class="cls-2" points="359.23 121.63 384.08 132.78 359.23 142.39"/><polyline class="cls-2" points="396.64 167.4 414.16 150.3 414.16 170.64"/><line class="cls-2" x1="391.69" y1="187.26" x2="401.29" y2="170.64"/><line class="cls-2" x1="398.7" y1="190.12" x2="407.89" y2="173.2"/></g><g id="Outer"><path class="cls-3" d="M117.31,305.93l-3,.7-27.58-.21C75.72,308.15,42.2,266,42.2,266c-8.67-3.47-8.09-26.59-8.09-26.59l-5.21-5.2s-4.62-11.57,0-22.55S30.48,192,30.48,192s-2.73-6.94,3.63-8.67c0,0,1.73,1.15,0-12.72s19.07-14.45,19.07-14.45,6.36-26,31.79-38.73c10.81-5.4,15.67-7.05,17.68-7.15a18.4,18.4,0,0,0,8.07-2.16C119,103.47,133,96.53,148.56,92.55c24.85-6.36,24.85-5.21,38.15-11.56s30.06-4,30.06-4,22.54-4.29,38.72-.41c0,0,14.45,1.49,20.23-1.62s26.59-2,35.84,3.76c0,0,33.53,2.89,47.4,16.77,0,0,13.87.57,19.66,9.25,0,0,19.07,9.82,20.8,20.23s14.46,11.56,14.46,11.56,25.43,24.27,25.43,28.9,4.62,26,19.07,41.62,10.41,32.37,10.41,32.37,13.29,15,6.36,32.37-27.75,38.73-39.89,29.48c0,0-39-6.56-56.62-7.92a19,19,0,0,0-11.19,2.62,55.53,55.53,0,0,1-20.63,7.53s-14.45,9.33-31.79,6.44c0,0-1.15,8.09-6.36,8.09,0,0-38.73,6.94-45.66,5.78s-53.18,24.86-56.07,31.79c0,0-16.19,5.78-24.86,0s-24.85-15.6-35.83-13.87-25.44-22-25.44-22L116,308.25l-.77-1.82-.74-1.74s67.74-78,82.19-79.07a3.35,3.35,0,0,0,1.88-.85c1.09-.9,4.21-2,13.14-1.26,14.29,1.14,30.86-12,34.86-20s23.38-18.86,45.12-12S342,150.94,342,150.94" transform="translate(-24.35 -70.7)"/><path class="cls-3" d="M433.19,301.72s7.38,20.41-.53,34-33.33,55.37-68.92,62.15-68.37-10.51-85.88-39.72c0,0-10.17-20.17-7.63-25.25a9.29,9.29,0,0,0-.4-9.22" transform="translate(-24.35 -70.7)"/><path class="cls-3" d="M329.75,397.1s9.69,19.95,17,19.95,0,9.6,0,9.6-12.43,4.15-17,4.15-56.5-57.25-56.5-60.64-7.34-2.83-7.34-2.83-22.49,1.38-34.35-28" transform="translate(-24.35 -70.7)"/><line class="cls-4" x1="252.76" y1="288.26" x2="246.5" y2="296.03"/></g><path class="cls-5" d="M274,331.29s30.15.56,43-11.24" transform="translate(-24.35 -70.7)"/><path class="cls-5" d="M276.72,336.13s30.15.56,43-11.23" transform="translate(-24.35 -70.7)"/><path class="cls-5" d="M276.72,339.72s30.15.56,43-11.24" transform="translate(-24.35 -70.7)"/><path class="cls-5" d="M279.68,344.14s30.15.56,42.95-11.24" transform="translate(-24.35 -70.7)"/><path class="cls-5" d="M284.55,347.76s30.15.56,43-11.24" transform="translate(-24.35 -70.7)"/><path class="cls-5" d="M285.69,351s30.15.56,43-11.24" transform="translate(-24.35 -70.7)"/><path class="cls-5" d="M285.69,353.77s30.15.56,43-11.24" transform="translate(-24.35 -70.7)"/><path class="cls-5" d="M287.56,356.19s30.15.56,43-11.24" transform="translate(-24.35 -70.7)"/><path class="cls-5" d="M288.7,361.81s30.15.56,43-11.24" transform="translate(-24.35 -70.7)"/><path class="cls-5" d="M302.35,364.34s27.8,27.48,47.95,30.46" transform="translate(-24.35 -70.7)"/><path class="cls-5" d="M296.94,362.63s28.38,32.29,49.37,37.95" transform="translate(-24.35 -70.7)"/><path class="cls-5" d="M295.42,365.73s20,25.9,37.89,29.39" transform="translate(-24.35 -70.7)"/><path class="cls-5" d="M316,357.77s31,30.55,52.5,34.84" transform="translate(-24.35 -70.7)"/><path class="cls-5" d="M314,361.82s31,30.54,52.5,34.84" transform="translate(-24.35 -70.7)"/><path class="cls-5" d="M310.1,364.19s31,30.54,52.5,34.83" transform="translate(-24.35 -70.7)"/><path class="cls-5" d="M331.66,350.2s29.71,29.3,50.66,33.06" transform="translate(-24.35 -70.7)"/><path class="cls-5" d="M327.74,354s29.71,29.31,50.67,33.07" transform="translate(-24.35 -70.7)"/><path class="cls-5" d="M325.08,358.71s29.71,29.3,50.66,33.06" transform="translate(-24.35 -70.7)"/><path class="cls-5" d="M321.13,316.12s2,3.37,10.53,0S357,313.31,357,313.31s20.15-.15,21.42-10c1.08-8.5,19.8-2.38,25-.5a9.45,9.45,0,0,0,2.88.57L423,304" transform="translate(-24.35 -70.7)"/><path class="cls-5" d="M326.33,322.3l24.08-2.25s18,3.56,18.11-2.43c.07-4.07,6.71-5.4,11-5.83a9.83,9.83,0,0,0,6.1-3h0a9.75,9.75,0,0,1,10.54-2.33c8.25,3.17,23.14,7.94,31.73,4.94" transform="translate(-24.35 -70.7)"/><path class="cls-5" d="M328.65,328.48a47,47,0,0,1,13.62-3.58c8-.91,20.33,3.58,20.33,3.58s13.75-3.37,14.48-6.18,6.92-9.83,13.66-9.13a129,129,0,0,0,16.26.1,9.82,9.82,0,0,1,3.49.46l19.35,6.32" transform="translate(-24.35 -70.7)"/><polyline class="cls-5" points="308.96 263.4 328.72 262.2 351.39 262.2 361.42 254.97 370.88 254.97 388.86 254.97 407.6 254.97"/><path class="cls-5" d="M383,322.3s15-7.87,27.68-2.25,26-4.49,21.32,2.25" transform="translate(-24.35 -70.7)"/><path class="cls-5" d="M331.66,338.52l21.41-2,18,2s1.14,3.87,11.24,0l10.1-3.86s5.06-6.18,12.93-3.37S423,328.48,423,328.48h4.8" transform="translate(-24.35 -70.7)"/><path class="cls-5" d="M333.31,345.34l23.68-3.2s57.33,6.51,68.26-6" transform="translate(-24.35 -70.7)"/><path class="cls-5" d="M340.27,351s70.47-1.59,78-2.81" transform="translate(-24.35 -70.7)"/><path class="cls-5" d="M344.53,356.19s14.77.19,27.4,0S413.21,351,413.21,351" transform="translate(-24.35 -70.7)"/><line class="cls-5" x1="328.72" y1="288.26" x2="384.41" y2="288"/><path class="cls-5" d="M357,364.19s38.24,7.92,46.67.15" transform="translate(-24.35 -70.7)"/><path class="cls-5" d="M383,379.24s14.64-4.91,15.25-8.73" transform="translate(-24.35 -70.7)"/><path class="cls-5" d="M375.74,374.87s13-1.47,14.83-4.36" transform="translate(-24.35 -70.7)"/><line class="cls-5" x1="339.39" y1="299.8" x2="351.39" y2="299.8"/><g id="text"><text class="cls-6" transform="translate(121.87 233.34)">()</text><text class="cls-7" transform="matrix(0.84, -0.54, 0.54, 0.84, 69.89, 207.88)">impo<tspan class="cls-8" x="26.23" y="0">r</tspan><tspan class="cls-9" x="30.44" y="0">t</tspan></text><text class="cls-7" transform="translate(32.18 107.75)">fun<tspan class="cls-10" x="16.78" y="0">c</tspan><tspan x="22.31" y="0">tion</tspan></text><text class="cls-7" transform="translate(144.74 83.16)">async</text><text class="cls-7" transform="translate(226.7 105.6)"><tspan class="cls-11">f</tspan><tspan x="3.35" y="0">e</tspan><tspan class="cls-12" x="9.36" y="0">t</tspan><tspan x="13.26" y="0">ch</tspan></text><text class="cls-7" transform="translate(266.6 32.91)">class</text><text class="cls-7" transform="translate(238.81 155.49)">json</text><text class="cls-7" transform="translate(280.86 207.51)">call</text><text class="cls-13" transform="translate(155.35 240.74)">G<tspan class="cls-14" x="9.04" y="0">r</tspan><tspan class="cls-15" x="13.55" y="0">a</tspan><tspan class="cls-16" x="20.3" y="0">c</tspan><tspan class="cls-17" x="26.49" y="0">e</tspan></text><text class="cls-7" transform="translate(373.86 199.31)">. #</text><text class="cls-18" transform="translate(208.17 63.96)">GOD</text></g></g></svg>